<svg xmlns:xlink="http://www.w3.org/1999/xlink" version="1.1" xmlns="http://www.w3.org/2000/svg" height="500" width="960"><line y2="253.9395461801917" x2="402.0598469949134" y1="247.95706608816076" x1="333.36525654346184" style="stroke-width: 1;" class="link"></line><line y2="253.9395461801917" x2="402.0598469949134" y1="285.0944656455678" x1="419.16655872933023" style="stroke-width: 2.82843;" class="link"></line><line y2="253.9395461801917" x2="402.0598469949134" y1="262.1536701735952" x1="431.76855176856964" style="stroke-width: 3.16228;" class="link"></line><line y2="285.0944656455678" x2="419.16655872933023" y1="262.1536701735952" x1="431.76855176856964" style="stroke-width: 2.44949;" class="link"></line><line y2="253.9395461801917" x2="402.0598469949134" y1="197.69762743537115" x1="369.3148060727077" style="stroke-width: 1;" class="link"></line><line y2="253.9395461801917" x2="402.0598469949134" y1="227.77022549438493" x1="337.9341846381092" style="stroke-width: 1;" class="link"></line><line y2="253.9395461801917" x2="402.0598469949134" y1="224.8443807380079" x1="356.1853334516336" style="stroke-width: 1;" class="link"></line><line y2="253.9395461801917" x2="402.0598469949134" y1="277.72252202127754" x1="342.8309749329763" style="stroke-width: 1;" class="link"></line><line y2="253.9395461801917" x2="402.0598469949134" y1="205.60314395888076" x1="351.0063891656425" style="stroke-width: 1.41421;" class="link"></line><line y2="253.9395461801917" x2="402.0598469949134" y1="258.3367451006173" x1="346.91741131339904" style="stroke-width: 1;" class="link"></line><line y2="320.15932127111097" x2="445.1808813700122" y1="283.1198469086385" x1="496.8053534965282" style="stroke-width: 1;" class="link"></line><line y2="262.1536701735952" x2="431.76855176856964" y1="283.1198469086385" x1="496.8053534965282" style="stroke-width: 1.73205;" class="link"></line><line y2="285.0944656455678" x2="419.16655872933023" y1="283.1198469086385" x1="496.8053534965282" style="stroke-width: 1.73205;" class="link"></line><line y2="253.9395461801917" x2="402.0598469949134" y1="283.1198469086385" x1="496.8053534965282" style="stroke-width: 2.23607;" class="link"></line><line y2="283.1198469086385" x2="496.8053534965282" y1="211.75601868005674" x1="519.3147570740007" style="stroke-width: 1;" class="link"></line><line y2="283.1198469086385" x2="496.8053534965282" y1="299.0195047018946" x1="443.6420399759269" style="stroke-width: 1;" class="link"></line><line y2="283.1198469086385" x2="496.8053534965282" y1="279.5092924566851" x1="441.94785517881127" style="stroke-width: 1;" class="link"></line><line y2="283.1198469086385" x2="496.8053534965282" y1="309.1144519224122" x1="427.6712644473797" style="stroke-width: 1;" class="link"></line><line y2="224.30637219670706" x2="587.1256393782003" y1="185.90260968073267" x1="589.8736868784272" style="stroke-width: 2;" class="link"></line><line y2="224.30637219670706" x2="587.1256393782003" y1="177.75764976355185" x1="614.6298720118014" style="stroke-width: 2;" class="link"></line><line y2="185.90260968073267" x2="589.8736868784272" y1="177.75764976355185" x1="614.6298720118014" style="stroke-width: 2;" class="link"></line><line y2="224.30637219670706" x2="587.1256393782003" y1="164.4848939979673" x1="601.6290010991753" style="stroke-width: 2;" class="link"></line><line y2="185.90260968073267" x2="589.8736868784272" y1="164.4848939979673" x1="601.6290010991753" style="stroke-width: 2;" class="link"></line><line y2="177.75764976355185" x2="614.6298720118014" y1="164.4848939979673" x1="601.6290010991753" style="stroke-width: 2;" class="link"></line><line y2="224.30637219670706" x2="587.1256393782003" y1="159.73764224632225" x1="583.6494969082937" style="stroke-width: 1.73205;" class="link"></line><line y2="185.90260968073267" x2="589.8736868784272" y1="159.73764224632225" x1="583.6494969082937" style="stroke-width: 1.73205;" class="link"></line><line y2="177.75764976355185" x2="614.6298720118014" y1="159.73764224632225" x1="583.6494969082937" style="stroke-width: 1.73205;" class="link"></line><line y2="164.4848939979673" x2="601.6290010991753" y1="159.73764224632225" x1="583.6494969082937" style="stroke-width: 2;" class="link"></line><line y2="224.30637219670706" x2="587.1256393782003" y1="194.34308945482613" x1="609.2080748174712" style="stroke-width: 1.73205;" class="link"></line><line y2="185.90260968073267" x2="589.8736868784272" y1="194.34308945482613" x1="609.2080748174712" style="stroke-width: 1.73205;" class="link"></line><line y2="177.75764976355185" x2="614.6298720118014" y1="194.34308945482613" x1="609.2080748174712" style="stroke-width: 1.73205;" class="link"></line><line y2="164.4848939979673" x2="601.6290010991753" y1="194.34308945482613" x1="609.2080748174712" style="stroke-width: 1.73205;" class="link"></line><line y2="159.73764224632225" x2="583.6494969082937" y1="194.34308945482613" x1="609.2080748174712" style="stroke-width: 2.23607;" class="link"></line><line y2="224.30637219670706" x2="587.1256393782003" y1="174.31069558353772" x1="573.8403588032197" style="stroke-width: 1.73205;" class="link"></line><line y2="185.90260968073267" x2="589.8736868784272" y1="174.31069558353772" x1="573.8403588032197" style="stroke-width: 1.73205;" class="link"></line><line y2="177.75764976355185" x2="614.6298720118014" y1="174.31069558353772" x1="573.8403588032197" style="stroke-width: 1.73205;" class="link"></line><line y2="164.4848939979673" x2="601.6290010991753" y1="174.31069558353772" x1="573.8403588032197" style="stroke-width: 1.73205;" class="link"></line><line y2="159.73764224632225" x2="583.6494969082937" y1="174.31069558353772" x1="573.8403588032197" style="stroke-width: 2;" class="link"></line><line y2="194.34308945482613" x2="609.2080748174712" y1="174.31069558353772" x1="573.8403588032197" style="stroke-width: 2;" class="link"></line><line y2="224.30637219670706" x2="587.1256393782003" y1="223.64875253013784" x1="555.0884586686781" style="stroke-width: 1.73205;" class="link"></line><line y2="185.90260968073267" x2="589.8736868784272" y1="223.64875253013784" x1="555.0884586686781" style="stroke-width: 1.73205;" class="link"></line><line y2="177.75764976355185" x2="614.6298720118014" y1="223.64875253013784" x1="555.0884586686781" style="stroke-width: 1.73205;" class="link"></line><line y2="164.4848939979673" x2="601.6290010991753" y1="223.64875253013784" x1="555.0884586686781" style="stroke-width: 1.73205;" class="link"></line><line y2="159.73764224632225" x2="583.6494969082937" y1="223.64875253013784" x1="555.0884586686781" style="stroke-width: 2;" class="link"></line><line y2="194.34308945482613" x2="609.2080748174712" y1="223.64875253013784" x1="555.0884586686781" style="stroke-width: 2;" class="link"></line><line y2="174.31069558353772" x2="573.8403588032197" y1="223.64875253013784" x1="555.0884586686781" style="stroke-width: 2;" class="link"></line><line y2="211.75601868005674" x2="519.3147570740007" y1="223.64875253013784" x1="555.0884586686781" style="stroke-width: 1.41421;" class="link"></line><line y2="283.1198469086385" x2="496.8053534965282" y1="223.64875253013784" x1="555.0884586686781" style="stroke-width: 3;" class="link"></line><line y2="223.64875253013784" x2="555.0884586686781" y1="274.71948076875105" x1="539.0689725618961" style="stroke-width: 1.41421;" class="link"></line><line y2="283.1198469086385" x2="496.8053534965282" y1="274.71948076875105" x1="539.0689725618961" style="stroke-width: 2.64575;" class="link"></line><line y2="274.71948076875105" x2="539.0689725618961" y1="299.2775070232266" x1="538.018346707009" style="stroke-width: 3.60555;" class="link"></line><line y2="223.64875253013784" x2="555.0884586686781" y1="299.2775070232266" x1="538.018346707009" style="stroke-width: 1;" class="link"></line><line y2="283.1198469086385" x2="496.8053534965282" y1="299.2775070232266" x1="538.018346707009" style="stroke-width: 3.4641;" class="link"></line><line y2="274.71948076875105" x2="539.0689725618961" y1="275.279140836113" x1="558.954979810616" style="stroke-width: 2;" class="link"></line><line y2="283.1198469086385" x2="496.8053534965282" y1="275.279140836113" x1="558.954979810616" style="stroke-width: 5.56776;" class="link"></line><line y2="224.30637219670706" x2="587.1256393782003" y1="275.279140836113" x1="558.954979810616" style="stroke-width: 1;" class="link"></line><line y2="299.2775070232266" x2="538.018346707009" y1="275.279140836113" x1="558.954979810616" style="stroke-width: 1;" class="link"></line><line y2="283.1198469086385" x2="496.8053534965282" y1="284.97517872544256" x1="517.3066206590847" style="stroke-width: 4.12311;" class="link"></line><line y2="223.64875253013784" x2="555.0884586686781" y1="284.97517872544256" x1="517.3066206590847" style="stroke-width: 2.23607;" class="link"></line><line y2="299.2775070232266" x2="538.018346707009" y1="284.97517872544256" x1="517.3066206590847" style="stroke-width: 2.23607;" class="link"></line><line y2="274.71948076875105" x2="539.0689725618961" y1="284.97517872544256" x1="517.3066206590847" style="stroke-width: 1;" class="link"></line><line y2="275.279140836113" x2="558.954979810616" y1="284.97517872544256" x1="517.3066206590847" style="stroke-width: 1;" class="link"></line><line y2="283.1198469086385" x2="496.8053534965282" y1="258.8151850525866" x1="466.84779575160445" style="stroke-width: 2.82843;" class="link"></line><line y2="284.97517872544256" x2="517.3066206590847" y1="258.8151850525866" x1="466.84779575160445" style="stroke-width: 1;" class="link"></line><line y2="223.64875253013784" x2="555.0884586686781" y1="231.24599589787402" x1="499.13570959296504" style="stroke-width: 1;" class="link"></line><line y2="284.97517872544256" x2="517.3066206590847" y1="231.24599589787402" x1="499.13570959296504" style="stroke-width: 1;" class="link"></line><line y2="283.1198469086385" x2="496.8053534965282" y1="231.24599589787402" x1="499.13570959296504" style="stroke-width: 1.41421;" class="link"></line><line y2="223.64875253013784" x2="555.0884586686781" y1="172.75223590994543" x1="538.2014028013108" style="stroke-width: 1;" class="link"></line><line y2="172.75223590994543" x2="538.2014028013108" y1="231.34802275604923" x1="522.0366769112209" style="stroke-width: 1.41421;" class="link"></line><line y2="283.1198469086385" x2="496.8053534965282" y1="231.34802275604923" x1="522.0366769112209" style="stroke-width: 1.73205;" class="link"></line><line y2="223.64875253013784" x2="555.0884586686781" y1="231.34802275604923" x1="522.0366769112209" style="stroke-width: 1.41421;" class="link"></line><line y2="284.97517872544256" x2="517.3066206590847" y1="231.34802275604923" x1="522.0366769112209" style="stroke-width: 1;" class="link"></line><line y2="283.1198469086385" x2="496.8053534965282" y1="209.07622741975334" x1="494.1073774163293" style="stroke-width: 1;" class="link"></line><line y2="283.1198469086385" x2="496.8053534965282" y1="251.12130080717677" x1="487.1476749192918" style="stroke-width: 1.41421;" class="link"></line><line y2="284.97517872544256" x2="517.3066206590847" y1="251.12130080717677" x1="487.1476749192918" style="stroke-width: 1;" class="link"></line><line y2="283.1198469086385" x2="496.8053534965282" y1="221.95086889713383" x1="475.67729753593846" style="stroke-width: 1.73205;" class="link"></line><line y2="231.24599589787402" x2="499.13570959296504" y1="221.95086889713383" x1="475.67729753593846" style="stroke-width: 1.41421;" class="link"></line><line y2="283.1198469086385" x2="496.8053534965282" y1="222.42794979010455" x1="449.2706791433132" style="stroke-width: 1.73205;" class="link"></line><line y2="221.95086889713383" x2="475.67729753593846" y1="222.42794979010455" x1="449.2706791433132" style="stroke-width: 1.73205;" class="link"></line><line y2="231.24599589787402" x2="499.13570959296504" y1="222.42794979010455" x1="449.2706791433132" style="stroke-width: 1.41421;" class="link"></line><line y2="221.95086889713383" x2="475.67729753593846" y1="205.12937975743682" x1="460.2312957999796" style="stroke-width: 1.41421;" class="link"></line><line y2="222.42794979010455" x2="449.2706791433132" y1="205.12937975743682" x1="460.2312957999796" style="stroke-width: 1.41421;" class="link"></line><line y2="283.1198469086385" x2="496.8053534965282" y1="205.12937975743682" x1="460.2312957999796" style="stroke-width: 1.41421;" class="link"></line><line y2="231.24599589787402" x2="499.13570959296504" y1="205.12937975743682" x1="460.2312957999796" style="stroke-width: 1;" class="link"></line><line y2="221.95086889713383" x2="475.67729753593846" y1="237.30617141657513" x1="461.5794614657255" style="stroke-width: 1.41421;" class="link"></line><line y2="222.42794979010455" x2="449.2706791433132" y1="237.30617141657513" x1="461.5794614657255" style="stroke-width: 1.41421;" class="link"></line><line y2="205.12937975743682" x2="460.2312957999796" y1="237.30617141657513" x1="461.5794614657255" style="stroke-width: 1.41421;" class="link"></line><line y2="283.1198469086385" x2="496.8053534965282" y1="237.30617141657513" x1="461.5794614657255" style="stroke-width: 1.41421;" class="link"></line><line y2="231.24599589787402" x2="499.13570959296504" y1="237.30617141657513" x1="461.5794614657255" style="stroke-width: 1;" class="link"></line><line y2="221.95086889713383" x2="475.67729753593846" y1="200.39333141123575" x1="479.4334853250923" style="stroke-width: 1.41421;" class="link"></line><line y2="222.42794979010455" x2="449.2706791433132" y1="200.39333141123575" x1="479.4334853250923" style="stroke-width: 1.41421;" class="link"></line><line y2="205.12937975743682" x2="460.2312957999796" y1="200.39333141123575" x1="479.4334853250923" style="stroke-width: 1.41421;" class="link"></line><line y2="237.30617141657513" x2="461.5794614657255" y1="200.39333141123575" x1="479.4334853250923" style="stroke-width: 1.41421;" class="link"></line><line y2="283.1198469086385" x2="496.8053534965282" y1="200.39333141123575" x1="479.4334853250923" style="stroke-width: 1.41421;" class="link"></line><line y2="231.24599589787402" x2="499.13570959296504" y1="200.39333141123575" x1="479.4334853250923" style="stroke-width: 1;" class="link"></line><line y2="299.2775070232266" x2="538.018346707009" y1="333.3481645643442" x1="590.1205881240894" style="stroke-width: 1;" class="link"></line><line y2="299.2775070232266" x2="538.018346707009" y1="277.8507437133345" x1="607.7756394742722" style="stroke-width: 1;" class="link"></line><line y2="274.71948076875105" x2="539.0689725618961" y1="329.20679140133257" x1="552.4357117810665" style="stroke-width: 1.41421;" class="link"></line><line y2="299.2775070232266" x2="538.018346707009" y1="329.20679140133257" x1="552.4357117810665" style="stroke-width: 1.73205;" class="link"></line><line y2="329.20679140133257" x2="552.4357117810665" y1="289.40918185981826" x1="582.7980903979753" style="stroke-width: 1.41421;" class="link"></line><line y2="299.2775070232266" x2="538.018346707009" y1="289.40918185981826" x1="582.7980903979753" style="stroke-width: 1.41421;" class="link"></line><line y2="274.71948076875105" x2="539.0689725618961" y1="289.40918185981826" x1="582.7980903979753" style="stroke-width: 1;" class="link"></line><line y2="283.1198469086385" x2="496.8053534965282" y1="249.07723823272536" x1="537.2480205320502" style="stroke-width: 1.73205;" class="link"></line><line y2="275.279140836113" x2="558.954979810616" y1="249.07723823272536" x1="537.2480205320502" style="stroke-width: 1;" class="link"></line><line y2="284.97517872544256" x2="517.3066206590847" y1="249.07723823272536" x1="537.2480205320502" style="stroke-width: 1;" class="link"></line><line y2="258.8151850525866" x2="466.84779575160445" y1="246.19324547337794" x1="438.7227686183364" style="stroke-width: 1.73205;" class="link"></line><line y2="283.1198469086385" x2="496.8053534965282" y1="246.19324547337794" x1="438.7227686183364" style="stroke-width: 1;" class="link"></line><line y2="258.8151850525866" x2="466.84779575160445" y1="191.94031491046937" x1="421.52388789263097" style="stroke-width: 1.41421;" class="link"></line><line y2="438.28828541909155" x2="387.49965206982336" y1="402.05895147983944" x1="436.8323387727032" style="stroke-width: 1;" class="link"></line><line y2="402.05895147983944" x2="436.8323387727032" y1="352.341248308194" x1="502.4931640154697" style="stroke-width: 1.41421;" class="link"></line><line y2="299.2775070232266" x2="538.018346707009" y1="352.341248308194" x1="502.4931640154697" style="stroke-width: 1;" class="link"></line><line y2="284.97517872544256" x2="517.3066206590847" y1="352.341248308194" x1="502.4931640154697" style="stroke-width: 1;" class="link"></line><line y2="283.1198469086385" x2="496.8053534965282" y1="352.341248308194" x1="502.4931640154697" style="stroke-width: 1;" class="link"></line><line y2="275.279140836113" x2="558.954979810616" y1="301.15023804211415" x1="555.6149897024422" style="stroke-width: 1.73205;" class="link"></line><line y2="283.1198469086385" x2="496.8053534965282" y1="301.15023804211415" x1="555.6149897024422" style="stroke-width: 1.41421;" class="link"></line><line y2="301.15023804211415" x2="555.6149897024422" y1="258.9471152000641" x1="589.8177548490751" style="stroke-width: 1;" class="link"></line><line y2="274.71948076875105" x2="539.0689725618961" y1="258.9471152000641" x1="589.8177548490751" style="stroke-width: 1;" class="link"></line><line y2="301.15023804211415" x2="555.6149897024422" y1="306.3839516861661" x1="572.2661996011756" style="stroke-width: 3;" class="link"></line><line y2="275.279140836113" x2="558.954979810616" y1="306.3839516861661" x1="572.2661996011756" style="stroke-width: 1.41421;" class="link"></line><line y2="283.1198469086385" x2="496.8053534965282" y1="306.3839516861661" x1="572.2661996011756" style="stroke-width: 1.41421;" class="link"></line><line y2="306.3839516861661" x2="572.2661996011756" y1="326.9030232731393" x1="634.4349478179524" style="stroke-width: 1;" class="link"></line><line y2="333.3481645643442" x2="590.1205881240894" y1="326.9030232731393" x1="634.4349478179524" style="stroke-width: 1;" class="link"></line><line y2="306.3839516861661" x2="572.2661996011756" y1="295.30545656150554" x1="642.6628790930936" style="stroke-width: 1;" class="link"></line><line y2="306.3839516861661" x2="572.2661996011756" y1="313.5970437181439" x1="596.1571990879082" style="stroke-width: 1.41421;" class="link"></line><line y2="301.15023804211415" x2="555.6149897024422" y1="313.5970437181439" x1="596.1571990879082" style="stroke-width: 1;" class="link"></line><line y2="275.279140836113" x2="558.954979810616" y1="313.5970437181439" x1="596.1571990879082" style="stroke-width: 1;" class="link"></line><line y2="306.3839516861661" x2="572.2661996011756" y1="340.72127925047886" x1="542.1933944794669" style="stroke-width: 2.44949;" class="link"></line><line y2="301.15023804211415" x2="555.6149897024422" y1="340.72127925047886" x1="542.1933944794669" style="stroke-width: 3.4641;" class="link"></line><line y2="333.3481645643442" x2="590.1205881240894" y1="340.72127925047886" x1="542.1933944794669" style="stroke-width: 1;" class="link"></line><line y2="313.5970437181439" x2="596.1571990879082" y1="340.72127925047886" x1="542.1933944794669" style="stroke-width: 1;" class="link"></line><line y2="275.279140836113" x2="558.954979810616" y1="340.72127925047886" x1="542.1933944794669" style="stroke-width: 4.58258;" class="link"></line><line y2="283.1198469086385" x2="496.8053534965282" y1="340.72127925047886" x1="542.1933944794669" style="stroke-width: 4.3589;" class="link"></line><line y2="224.30637219670706" x2="587.1256393782003" y1="340.72127925047886" x1="542.1933944794669" style="stroke-width: 1;" class="link"></line><line y2="299.2775070232266" x2="538.018346707009" y1="340.72127925047886" x1="542.1933944794669" style="stroke-width: 1.41421;" class="link"></line><line y2="329.20679140133257" x2="552.4357117810665" y1="340.72127925047886" x1="542.1933944794669" style="stroke-width: 2.23607;" class="link"></line><line y2="352.341248308194" x2="502.4931640154697" y1="340.72127925047886" x1="542.1933944794669" style="stroke-width: 2;" class="link"></line><line y2="301.15023804211415" x2="555.6149897024422" y1="350.9764944768019" x1="592.1567860968588" style="stroke-width: 1;" class="link"></line><line y2="340.72127925047886" x2="542.1933944794669" y1="350.9764944768019" x1="592.1567860968588" style="stroke-width: 1;" class="link"></line><line y2="340.72127925047886" x2="542.1933944794669" y1="377.37065201043424" x1="550.7807643918846" style="stroke-width: 1;" class="link"></line><line y2="329.20679140133257" x2="552.4357117810665" y1="377.37065201043424" x1="550.7807643918846" style="stroke-width: 1;" class="link"></line><line y2="352.341248308194" x2="502.4931640154697" y1="377.37065201043424" x1="550.7807643918846" style="stroke-width: 1;" class="link"></line><line y2="340.72127925047886" x2="542.1933944794669" y1="357.3568202296526" x1="518.5180130619028" style="stroke-width: 2.64575;" class="link"></line><line y2="352.341248308194" x2="502.4931640154697" y1="357.3568202296526" x1="518.5180130619028" style="stroke-width: 2.64575;" class="link"></line><line y2="284.97517872544256" x2="517.3066206590847" y1="357.3568202296526" x1="518.5180130619028" style="stroke-width: 2.44949;" class="link"></line><line y2="377.37065201043424" x2="550.7807643918846" y1="357.3568202296526" x1="518.5180130619028" style="stroke-width: 1;" class="link"></line><line y2="283.1198469086385" x2="496.8053534965282" y1="357.3568202296526" x1="518.5180130619028" style="stroke-width: 2;" class="link"></line><line y2="357.3568202296526" x2="518.5180130619028" y1="396.7403784446874" x1="519.6607938746548" style="stroke-width: 3.87298;" class="link"></line><line y2="340.72127925047886" x2="542.1933944794669" y1="396.7403784446874" x1="519.6607938746548" style="stroke-width: 2.23607;" class="link"></line><line y2="352.341248308194" x2="502.4931640154697" y1="396.7403784446874" x1="519.6607938746548" style="stroke-width: 2.44949;" class="link"></line><line y2="377.37065201043424" x2="550.7807643918846" y1="396.7403784446874" x1="519.6607938746548" style="stroke-width: 1.41421;" class="link"></line><line y2="352.341248308194" x2="502.4931640154697" y1="411.25251182214294" x1="499.8031390799721" style="stroke-width: 1;" class="link"></line><line y2="357.3568202296526" x2="518.5180130619028" y1="411.25251182214294" x1="499.8031390799721" style="stroke-width: 2;" class="link"></line><line y2="396.7403784446874" x2="519.6607938746548" y1="411.25251182214294" x1="499.8031390799721" style="stroke-width: 1.41421;" class="link"></line><line y2="352.341248308194" x2="502.4931640154697" y1="393.5844902044074" x1="539.4363506385091" style="stroke-width: 1.41421;" class="link"></line><line y2="357.3568202296526" x2="518.5180130619028" y1="393.5844902044074" x1="539.4363506385091" style="stroke-width: 2.44949;" class="link"></line><line y2="411.25251182214294" x2="499.8031390799721" y1="393.5844902044074" x1="539.4363506385091" style="stroke-width: 1.41421;" class="link"></line><line y2="396.7403784446874" x2="519.6607938746548" y1="393.5844902044074" x1="539.4363506385091" style="stroke-width: 2.23607;" class="link"></line><line y2="377.37065201043424" x2="550.7807643918846" y1="393.5844902044074" x1="539.4363506385091" style="stroke-width: 1;" class="link"></line><line y2="340.72127925047886" x2="542.1933944794669" y1="393.5844902044074" x1="539.4363506385091" style="stroke-width: 1;" class="link"></line><line y2="340.72127925047886" x2="542.1933944794669" y1="379.22394006547813" x1="530.39032000125" style="stroke-width: 3;" class="link"></line><line y2="357.3568202296526" x2="518.5180130619028" y1="379.22394006547813" x1="530.39032000125" style="stroke-width: 4.12311;" class="link"></line><line y2="396.7403784446874" x2="519.6607938746548" y1="379.22394006547813" x1="530.39032000125" style="stroke-width: 3.60555;" class="link"></line><line y2="352.341248308194" x2="502.4931640154697" y1="379.22394006547813" x1="530.39032000125" style="stroke-width: 2.64575;" class="link"></line><line y2="377.37065201043424" x2="550.7807643918846" y1="379.22394006547813" x1="530.39032000125" style="stroke-width: 1.41421;" class="link"></line><line y2="329.20679140133257" x2="552.4357117810665" y1="379.22394006547813" x1="530.39032000125" style="stroke-width: 1;" class="link"></line><line y2="393.5844902044074" x2="539.4363506385091" y1="379.22394006547813" x1="530.39032000125" style="stroke-width: 2.44949;" class="link"></line><line y2="411.25251182214294" x2="499.8031390799721" y1="379.22394006547813" x1="530.39032000125" style="stroke-width: 1.73205;" class="link"></line><line y2="396.7403784446874" x2="519.6607938746548" y1="405.48055704146407" x1="532.0911015734749" style="stroke-width: 2.23607;" class="link"></line><line y2="352.341248308194" x2="502.4931640154697" y1="405.48055704146407" x1="532.0911015734749" style="stroke-width: 2.23607;" class="link"></line><line y2="379.22394006547813" x2="530.39032000125" y1="405.48055704146407" x1="532.0911015734749" style="stroke-width: 2.44949;" class="link"></line><line y2="377.37065201043424" x2="550.7807643918846" y1="405.48055704146407" x1="532.0911015734749" style="stroke-width: 1.41421;" class="link"></line><line y2="357.3568202296526" x2="518.5180130619028" y1="405.48055704146407" x1="532.0911015734749" style="stroke-width: 2;" class="link"></line><line y2="393.5844902044074" x2="539.4363506385091" y1="405.48055704146407" x1="532.0911015734749" style="stroke-width: 1.73205;" class="link"></line><line y2="411.25251182214294" x2="499.8031390799721" y1="405.48055704146407" x1="532.0911015734749" style="stroke-width: 1.41421;" class="link"></line><line y2="340.72127925047886" x2="542.1933944794669" y1="405.48055704146407" x1="532.0911015734749" style="stroke-width: 1;" class="link"></line><line y2="340.72127925047886" x2="542.1933944794669" y1="369.2728762483923" x1="501.6422557394883" style="stroke-width: 2.23607;" class="link"></line><line y2="379.22394006547813" x2="530.39032000125" y1="369.2728762483923" x1="501.6422557394883" style="stroke-width: 3.4641;" class="link"></line><line y2="352.341248308194" x2="502.4931640154697" y1="369.2728762483923" x1="501.6422557394883" style="stroke-width: 2.23607;" class="link"></line><line y2="405.48055704146407" x2="532.0911015734749" y1="369.2728762483923" x1="501.6422557394883" style="stroke-width: 2;" class="link"></line><line y2="357.3568202296526" x2="518.5180130619028" y1="369.2728762483923" x1="501.6422557394883" style="stroke-width: 3.16228;" class="link"></line><line y2="393.5844902044074" x2="539.4363506385091" y1="369.2728762483923" x1="501.6422557394883" style="stroke-width: 2.44949;" class="link"></line><line y2="411.25251182214294" x2="499.8031390799721" y1="369.2728762483923" x1="501.6422557394883" style="stroke-width: 1.41421;" class="link"></line><line y2="396.7403784446874" x2="519.6607938746548" y1="369.2728762483923" x1="501.6422557394883" style="stroke-width: 3;" class="link"></line><line y2="377.37065201043424" x2="550.7807643918846" y1="369.2728762483923" x1="501.6422557394883" style="stroke-width: 1;" class="link"></line><line y2="283.1198469086385" x2="496.8053534965282" y1="369.2728762483923" x1="501.6422557394883" style="stroke-width: 1;" class="link"></line><line y2="405.48055704146407" x2="532.0911015734749" y1="387.19640396887854" x1="507.9515854055281" style="stroke-width: 2.23607;" class="link"></line><line y2="369.2728762483923" x2="501.6422557394883" y1="387.19640396887854" x1="507.9515854055281" style="stroke-width: 2.64575;" class="link"></line><line y2="352.341248308194" x2="502.4931640154697" y1="387.19640396887854" x1="507.9515854055281" style="stroke-width: 1.73205;" class="link"></line><line y2="379.22394006547813" x2="530.39032000125" y1="387.19640396887854" x1="507.9515854055281" style="stroke-width: 2.23607;" class="link"></line><line y2="357.3568202296526" x2="518.5180130619028" y1="387.19640396887854" x1="507.9515854055281" style="stroke-width: 2.23607;" class="link"></line><line y2="393.5844902044074" x2="539.4363506385091" y1="387.19640396887854" x1="507.9515854055281" style="stroke-width: 2.23607;" class="link"></line><line y2="411.25251182214294" x2="499.8031390799721" y1="387.19640396887854" x1="507.9515854055281" style="stroke-width: 1.41421;" class="link"></line><line y2="396.7403784446874" x2="519.6607938746548" y1="387.19640396887854" x1="507.9515854055281" style="stroke-width: 2.23607;" class="link"></line><line y2="377.37065201043424" x2="550.7807643918846" y1="387.19640396887854" x1="507.9515854055281" style="stroke-width: 1;" class="link"></line><line y2="340.72127925047886" x2="542.1933944794669" y1="387.19640396887854" x1="507.9515854055281" style="stroke-width: 1.41421;" class="link"></line><line y2="369.2728762483923" x2="501.6422557394883" y1="396.9705751413847" x1="489.04444849129095" style="stroke-width: 1.73205;" class="link"></line><line y2="357.3568202296526" x2="518.5180130619028" y1="396.9705751413847" x1="489.04444849129095" style="stroke-width: 1.73205;" class="link"></line><line y2="396.7403784446874" x2="519.6607938746548" y1="396.9705751413847" x1="489.04444849129095" style="stroke-width: 1;" class="link"></line><line y2="379.22394006547813" x2="530.39032000125" y1="396.9705751413847" x1="489.04444849129095" style="stroke-width: 1.41421;" class="link"></line><line y2="387.19640396887854" x2="507.9515854055281" y1="396.9705751413847" x1="489.04444849129095" style="stroke-width: 1.41421;" class="link"></line><line y2="352.341248308194" x2="502.4931640154697" y1="396.9705751413847" x1="489.04444849129095" style="stroke-width: 1;" class="link"></line><line y2="405.48055704146407" x2="532.0911015734749" y1="396.9705751413847" x1="489.04444849129095" style="stroke-width: 1;" class="link"></line><line y2="393.5844902044074" x2="539.4363506385091" y1="396.9705751413847" x1="489.04444849129095" style="stroke-width: 1;" class="link"></line><line y2="411.25251182214294" x2="499.8031390799721" y1="396.9705751413847" x1="489.04444849129095" style="stroke-width: 1;" class="link"></line><line y2="377.37065201043424" x2="550.7807643918846" y1="424.3938634707741" x1="590.5831005878921" style="stroke-width: 1.73205;" class="link"></line><line y2="299.2775070232266" x2="538.018346707009" y1="319.0600600864782" x1="513.7100321660035" style="stroke-width: 2.23607;" class="link"></line><line y2="283.1198469086385" x2="496.8053534965282" y1="319.0600600864782" x1="513.7100321660035" style="stroke-width: 1;" class="link"></line><line y2="274.71948076875105" x2="539.0689725618961" y1="319.0600600864782" x1="513.7100321660035" style="stroke-width: 1;" class="link"></line><line y2="284.97517872544256" x2="517.3066206590847" y1="319.0600600864782" x1="513.7100321660035" style="stroke-width: 1;" class="link"></line><line y2="352.341248308194" x2="502.4931640154697" y1="319.0600600864782" x1="513.7100321660035" style="stroke-width: 1;" class="link"></line><line y2="329.20679140133257" x2="552.4357117810665" y1="319.0600600864782" x1="513.7100321660035" style="stroke-width: 1;" class="link"></line><line y2="299.2775070232266" x2="538.018346707009" y1="308.2801048146708" x1="503.6082780295167" style="stroke-width: 2.44949;" class="link"></line><line y2="319.0600600864782" x2="513.7100321660035" y1="308.2801048146708" x1="503.6082780295167" style="stroke-width: 2.44949;" class="link"></line><line y2="283.1198469086385" x2="496.8053534965282" y1="308.2801048146708" x1="503.6082780295167" style="stroke-width: 1;" class="link"></line><line y2="274.71948076875105" x2="539.0689725618961" y1="308.2801048146708" x1="503.6082780295167" style="stroke-width: 1;" class="link"></line><line y2="284.97517872544256" x2="517.3066206590847" y1="308.2801048146708" x1="503.6082780295167" style="stroke-width: 1.41421;" class="link"></line><line y2="352.341248308194" x2="502.4931640154697" y1="308.2801048146708" x1="503.6082780295167" style="stroke-width: 1;" class="link"></line><line y2="329.20679140133257" x2="552.4357117810665" y1="308.2801048146708" x1="503.6082780295167" style="stroke-width: 1;" class="link"></line><line y2="299.2775070232266" x2="538.018346707009" y1="314.59002265380485" x1="528.1812999342103" style="stroke-width: 2;" class="link"></line><line y2="308.2801048146708" x2="503.6082780295167" y1="314.59002265380485" x1="528.1812999342103" style="stroke-width: 2;" class="link"></line><line y2="319.0600600864782" x2="513.7100321660035" y1="314.59002265380485" x1="528.1812999342103" style="stroke-width: 2;" class="link"></line><line y2="283.1198469086385" x2="496.8053534965282" y1="314.59002265380485" x1="528.1812999342103" style="stroke-width: 1;" class="link"></line><line y2="274.71948076875105" x2="539.0689725618961" y1="314.59002265380485" x1="528.1812999342103" style="stroke-width: 1;" class="link"></line><line y2="284.97517872544256" x2="517.3066206590847" y1="314.59002265380485" x1="528.1812999342103" style="stroke-width: 1;" class="link"></line><line y2="329.20679140133257" x2="552.4357117810665" y1="314.59002265380485" x1="528.1812999342103" style="stroke-width: 1;" class="link"></line><line y2="357.3568202296526" x2="518.5180130619028" y1="314.59002265380485" x1="528.1812999342103" style="stroke-width: 1;" class="link"></line><line y2="284.97517872544256" x2="517.3066206590847" y1="322.6878880781957" x1="494.2616489113492" style="stroke-width: 1;" class="link"></line><line y2="308.2801048146708" x2="503.6082780295167" y1="322.6878880781957" x1="494.2616489113492" style="stroke-width: 1.41421;" class="link"></line><line y2="319.0600600864782" x2="513.7100321660035" y1="322.6878880781957" x1="494.2616489113492" style="stroke-width: 1.41421;" class="link"></line><line y2="314.59002265380485" x2="528.1812999342103" y1="322.6878880781957" x1="494.2616489113492" style="stroke-width: 1.41421;" class="link"></line><line y2="283.1198469086385" x2="496.8053534965282" y1="322.6878880781957" x1="494.2616489113492" style="stroke-width: 1;" class="link"></line><line y2="352.341248308194" x2="502.4931640154697" y1="322.6878880781957" x1="494.2616489113492" style="stroke-width: 1;" class="link"></line><line y2="329.20679140133257" x2="552.4357117810665" y1="322.6878880781957" x1="494.2616489113492" style="stroke-width: 1;" class="link"></line><line y2="299.2775070232266" x2="538.018346707009" y1="322.6878880781957" x1="494.2616489113492" style="stroke-width: 1;" class="link"></line><line y2="275.279140836113" x2="558.954979810616" y1="251.2526025543778" x1="523.2186396121999" style="stroke-width: 1.41421;" class="link"></line><line y2="284.97517872544256" x2="517.3066206590847" y1="251.2526025543778" x1="523.2186396121999" style="stroke-width: 1;" class="link"></line><line y2="283.1198469086385" x2="496.8053534965282" y1="251.2526025543778" x1="523.2186396121999" style="stroke-width: 1;" class="link"></line><line y2="352.341248308194" x2="502.4931640154697" y1="405.6264949578677" x1="459.32143305962524" style="stroke-width: 1.41421;" class="link"></line><line y2="352.341248308194" x2="502.4931640154697" y1="379.09726660402094" x1="442.9128320567807" style="stroke-width: 1.41421;" class="link"></line><line y2="405.6264949578677" x2="459.32143305962524" y1="379.09726660402094" x1="442.9128320567807" style="stroke-width: 1.73205;" class="link"></line><line y2="308.2801048146708" x2="503.6082780295167" y1="341.6393867718531" x1="526.8301141419645" style="stroke-width: 1.73205;" class="link"></line><line y2="319.0600600864782" x2="513.7100321660035" y1="341.6393867718531" x1="526.8301141419645" style="stroke-width: 1.73205;" class="link"></line><line y2="299.2775070232266" x2="538.018346707009" y1="341.6393867718531" x1="526.8301141419645" style="stroke-width: 1.73205;" class="link"></line><line y2="352.341248308194" x2="502.4931640154697" y1="341.6393867718531" x1="526.8301141419645" style="stroke-width: 1;" class="link"></line><line y2="329.20679140133257" x2="552.4357117810665" y1="341.6393867718531" x1="526.8301141419645" style="stroke-width: 1;" class="link"></line><line y2="314.59002265380485" x2="528.1812999342103" y1="341.6393867718531" x1="526.8301141419645" style="stroke-width: 1;" class="link"></line><line y2="322.6878880781957" x2="494.2616489113492" y1="341.6393867718531" x1="526.8301141419645" style="stroke-width: 1;" class="link"></line><line y2="369.2728762483923" x2="501.6422557394883" y1="412.3902914080677" x1="510.28206978151564" style="stroke-width: 1;" class="link"></line><line y2="387.19640396887854" x2="507.9515854055281" y1="412.3902914080677" x1="510.28206978151564" style="stroke-width: 1;" class="link"></line><line y2="396.9705751413847" x2="489.04444849129095" y1="412.3902914080677" x1="510.28206978151564" style="stroke-width: 1;" class="link"></line><line y2="405.48055704146407" x2="532.0911015734749" y1="412.3902914080677" x1="510.28206978151564" style="stroke-width: 1;" class="link"></line><line y2="379.22394006547813" x2="530.39032000125" y1="412.3902914080677" x1="510.28206978151564" style="stroke-width: 1;" class="link"></line><line y2="352.341248308194" x2="502.4931640154697" y1="412.3902914080677" x1="510.28206978151564" style="stroke-width: 1;" class="link"></line><line y2="357.3568202296526" x2="518.5180130619028" y1="412.3902914080677" x1="510.28206978151564" style="stroke-width: 1;" class="link"></line><circle style="fill: rgb(31, 119, 180);" r="5" cy="253.9395461801917" cx="402.0598469949134" class="node"><title>Myriel</title></circle><circle style="fill: rgb(31, 119, 180);" r="5" cy="247.95706608816076" cx="333.36525654346184" class="node"><title>Napoleon</title></circle><circle style="fill: rgb(31, 119, 180);" r="5" cy="285.0944656455678" cx="419.16655872933023" class="node"><title>Mlle.Baptistine</title></circle><circle style="fill: rgb(31, 119, 180);" r="5" cy="262.1536701735952" cx="431.76855176856964" class="node"><title>Mme.Magloire</title></circle><circle style="fill: rgb(31, 119, 180);" r="5" cy="197.69762743537115" cx="369.3148060727077" class="node"><title>CountessdeLo</title></circle><circle style="fill: rgb(31, 119, 180);" r="5" cy="227.77022549438493" cx="337.9341846381092" class="node"><title>Geborand</title></circle><circle style="fill: rgb(31, 119, 180);" r="5" cy="224.8443807380079" cx="356.1853334516336" class="node"><title>Champtercier</title></circle><circle style="fill: rgb(31, 119, 180);" r="5" cy="277.72252202127754" cx="342.8309749329763" class="node"><title>Cravatte</title></circle><circle style="fill: rgb(31, 119, 180);" r="5" cy="205.60314395888076" cx="351.0063891656425" class="node"><title>Count</title></circle><circle style="fill: rgb(31, 119, 180);" r="5" cy="258.3367451006173" cx="346.91741131339904" class="node"><title>OldMan</title></circle><circle style="fill: rgb(174, 199, 232);" r="5" cy="320.15932127111097" cx="445.1808813700122" class="node"><title>Labarre</title></circle><circle style="fill: rgb(174, 199, 232);" r="5" cy="283.1198469086385" cx="496.8053534965282" class="node"><title>Valjean</title></circle><circle style="fill: rgb(255, 127, 14);" r="5" cy="211.75601868005674" cx="519.3147570740007" class="node"><title>Marguerite</title></circle><circle style="fill: rgb(174, 199, 232);" r="5" cy="299.0195047018946" cx="443.6420399759269" class="node"><title>Mme.deR</title></circle><circle style="fill: rgb(174, 199, 232);" r="5" cy="279.5092924566851" cx="441.94785517881127" class="node"><title>Isabeau</title></circle><circle style="fill: rgb(174, 199, 232);" r="5" cy="309.1144519224122" cx="427.6712644473797" class="node"><title>Gervais</title></circle><circle style="fill: rgb(255, 127, 14);" r="5" cy="224.30637219670706" cx="587.1256393782003" class="node"><title>Tholomyes</title></circle><circle style="fill: rgb(255, 127, 14);" r="5" cy="185.90260968073267" cx="589.8736868784272" class="node"><title>Listolier</title></circle><circle style="fill: rgb(255, 127, 14);" r="5" cy="177.75764976355185" cx="614.6298720118014" class="node"><title>Fameuil</title></circle><circle style="fill: rgb(255, 127, 14);" r="5" cy="164.4848939979673" cx="601.6290010991753" class="node"><title>Blacheville</title></circle><circle style="fill: rgb(255, 127, 14);" r="5" cy="159.73764224632225" cx="583.6494969082937" class="node"><title>Favourite</title></circle><circle style="fill: rgb(255, 127, 14);" r="5" cy="194.34308945482613" cx="609.2080748174712" class="node"><title>Dahlia</title></circle><circle style="fill: rgb(255, 127, 14);" r="5" cy="174.31069558353772" cx="573.8403588032197" class="node"><title>Zephine</title></circle><circle style="fill: rgb(255, 127, 14);" r="5" cy="223.64875253013784" cx="555.0884586686781" class="node"><title>Fantine</title></circle><circle style="fill: rgb(255, 187, 120);" r="5" cy="274.71948076875105" cx="539.0689725618961" class="node"><title>Mme.Thenardier</title></circle><circle style="fill: rgb(255, 187, 120);" r="5" cy="299.2775070232266" cx="538.018346707009" class="node"><title>Thenardier</title></circle><circle style="fill: rgb(44, 160, 44);" r="5" cy="275.279140836113" cx="558.954979810616" class="node"><title>Cosette</title></circle><circle style="fill: rgb(255, 187, 120);" r="5" cy="284.97517872544256" cx="517.3066206590847" class="node"><title>Javert</title></circle><circle style="fill: rgb(152, 223, 138);" r="5" cy="258.8151850525866" cx="466.84779575160445" class="node"><title>Fauchelevent</title></circle><circle style="fill: rgb(174, 199, 232);" r="5" cy="231.24599589787402" cx="499.13570959296504" class="node"><title>Bamatabois</title></circle><circle style="fill: rgb(255, 127, 14);" r="5" cy="172.75223590994543" cx="538.2014028013108" class="node"><title>Perpetue</title></circle><circle style="fill: rgb(174, 199, 232);" r="5" cy="231.34802275604923" cx="522.0366769112209" class="node"><title>Simplice</title></circle><circle style="fill: rgb(174, 199, 232);" r="5" cy="209.07622741975334" cx="494.1073774163293" class="node"><title>Scaufflaire</title></circle><circle style="fill: rgb(174, 199, 232);" r="5" cy="251.12130080717677" cx="487.1476749192918" class="node"><title>Woman1</title></circle><circle style="fill: rgb(174, 199, 232);" r="5" cy="221.95086889713383" cx="475.67729753593846" class="node"><title>Judge</title></circle><circle style="fill: rgb(174, 199, 232);" r="5" cy="222.42794979010455" cx="449.2706791433132" class="node"><title>Champmathieu</title></circle><circle style="fill: rgb(174, 199, 232);" r="5" cy="205.12937975743682" cx="460.2312957999796" class="node"><title>Brevet</title></circle><circle style="fill: rgb(174, 199, 232);" r="5" cy="237.30617141657513" cx="461.5794614657255" class="node"><title>Chenildieu</title></circle><circle style="fill: rgb(174, 199, 232);" r="5" cy="200.39333141123575" cx="479.4334853250923" class="node"><title>Cochepaille</title></circle><circle style="fill: rgb(255, 187, 120);" r="5" cy="333.3481645643442" cx="590.1205881240894" class="node"><title>Pontmercy</title></circle><circle style="fill: rgb(214, 39, 40);" r="5" cy="277.8507437133345" cx="607.7756394742722" class="node"><title>Boulatruelle</title></circle><circle style="fill: rgb(255, 187, 120);" r="5" cy="329.20679140133257" cx="552.4357117810665" class="node"><title>Eponine</title></circle><circle style="fill: rgb(255, 187, 120);" r="5" cy="289.40918185981826" cx="582.7980903979753" class="node"><title>Anzelma</title></circle><circle style="fill: rgb(44, 160, 44);" r="5" cy="249.07723823272536" cx="537.2480205320502" class="node"><title>Woman2</title></circle><circle style="fill: rgb(152, 223, 138);" r="5" cy="246.19324547337794" cx="438.7227686183364" class="node"><title>MotherInnocent</title></circle><circle style="fill: rgb(152, 223, 138);" r="5" cy="191.94031491046937" cx="421.52388789263097" class="node"><title>Gribier</title></circle><circle style="fill: rgb(255, 152, 150);" r="5" cy="438.28828541909155" cx="387.49965206982336" class="node"><title>Jondrette</title></circle><circle style="fill: rgb(255, 152, 150);" r="5" cy="402.05895147983944" cx="436.8323387727032" class="node"><title>Mme.Burgon</title></circle><circle style="fill: rgb(148, 103, 189);" r="5" cy="352.341248308194" cx="502.4931640154697" class="node"><title>Gavroche</title></circle><circle style="fill: rgb(44, 160, 44);" r="5" cy="301.15023804211415" cx="555.6149897024422" class="node"><title>Gillenormand</title></circle><circle style="fill: rgb(44, 160, 44);" r="5" cy="258.9471152000641" cx="589.8177548490751" class="node"><title>Magnon</title></circle><circle style="fill: rgb(44, 160, 44);" r="5" cy="306.3839516861661" cx="572.2661996011756" class="node"><title>Mlle.Gillenormand</title></circle><circle style="fill: rgb(44, 160, 44);" r="5" cy="326.9030232731393" cx="634.4349478179524" class="node"><title>Mme.Pontmercy</title></circle><circle style="fill: rgb(44, 160, 44);" r="5" cy="295.30545656150554" cx="642.6628790930936" class="node"><title>Mlle.Vaubois</title></circle><circle style="fill: rgb(44, 160, 44);" r="5" cy="313.5970437181439" cx="596.1571990879082" class="node"><title>Lt.Gillenormand</title></circle><circle style="fill: rgb(148, 103, 189);" r="5" cy="340.72127925047886" cx="542.1933944794669" class="node"><title>Marius</title></circle><circle style="fill: rgb(44, 160, 44);" r="5" cy="350.9764944768019" cx="592.1567860968588" class="node"><title>BaronessT</title></circle><circle style="fill: rgb(148, 103, 189);" r="5" cy="377.37065201043424" cx="550.7807643918846" class="node"><title>Mabeuf</title></circle><circle style="fill: rgb(148, 103, 189);" r="5" cy="357.3568202296526" cx="518.5180130619028" class="node"><title>Enjolras</title></circle><circle style="fill: rgb(148, 103, 189);" r="5" cy="396.7403784446874" cx="519.6607938746548" class="node"><title>Combeferre</title></circle><circle style="fill: rgb(148, 103, 189);" r="5" cy="411.25251182214294" cx="499.8031390799721" class="node"><title>Prouvaire</title></circle><circle style="fill: rgb(148, 103, 189);" r="5" cy="393.5844902044074" cx="539.4363506385091" class="node"><title>Feuilly</title></circle><circle style="fill: rgb(148, 103, 189);" r="5" cy="379.22394006547813" cx="530.39032000125" class="node"><title>Courfeyrac</title></circle><circle style="fill: rgb(148, 103, 189);" r="5" cy="405.48055704146407" cx="532.0911015734749" class="node"><title>Bahorel</title></circle><circle style="fill: rgb(148, 103, 189);" r="5" cy="369.2728762483923" cx="501.6422557394883" class="node"><title>Bossuet</title></circle><circle style="fill: rgb(148, 103, 189);" r="5" cy="387.19640396887854" cx="507.9515854055281" class="node"><title>Joly</title></circle><circle style="fill: rgb(148, 103, 189);" r="5" cy="396.9705751413847" cx="489.04444849129095" class="node"><title>Grantaire</title></circle><circle style="fill: rgb(197, 176, 213);" r="5" cy="424.3938634707741" cx="590.5831005878921" class="node"><title>MotherPlutarch</title></circle><circle style="fill: rgb(255, 187, 120);" r="5" cy="319.0600600864782" cx="513.7100321660035" class="node"><title>Gueulemer</title></circle><circle style="fill: rgb(255, 187, 120);" r="5" cy="308.2801048146708" cx="503.6082780295167" class="node"><title>Babet</title></circle><circle style="fill: rgb(255, 187, 120);" r="5" cy="314.59002265380485" cx="528.1812999342103" class="node"><title>Claquesous</title></circle><circle style="fill: rgb(255, 187, 120);" r="5" cy="322.6878880781957" cx="494.2616489113492" class="node"><title>Montparnasse</title></circle><circle style="fill: rgb(44, 160, 44);" r="5" cy="251.2526025543778" cx="523.2186396121999" class="node"><title>Toussaint</title></circle><circle style="fill: rgb(140, 86, 75);" r="5" cy="405.6264949578677" cx="459.32143305962524" class="node"><title>Child1</title></circle><circle style="fill: rgb(140, 86, 75);" r="5" cy="379.09726660402094" cx="442.9128320567807" class="node"><title>Child2</title></circle><circle style="fill: rgb(255, 187, 120);" r="5" cy="341.6393867718531" cx="526.8301141419645" class="node"><title>Brujon</title></circle><circle style="fill: rgb(148, 103, 189);" r="5" cy="412.3902914080677" cx="510.28206978151564" class="node"><title>Mme.Hucheloup</title></circle></svg>
